<svg xmlns="http://www.w3.org/2000/svg" viewBox="0 0 200 60">
  <!-- Carro -->
  <path d="M18 38 L21 28 Q22 25 25 25 L55 25 Q58 25 59 28 L62 38 Q64 39 64 41 L64 45 Q64 46 63 46 L59 46 Q58 46 58 45 L58 43 L22 43 L22 45 Q22 46 21 46 L17 46 Q16 46 16 45 L16 41 Q16 39 18 38 Z" fill="#3c8dbc"/>
  <path d="M26 29 L29 36 L51 36 L54 29 Z" fill="#d6eaf8"/>
  <rect x="20" y="37" width="40" height="1.5" rx="0.75" fill="#2980b9"/>
  <circle cx="26" cy="43" r="4.5" fill="#1a5276" stroke="#aed6f1" stroke-width="1.5"/>
  <circle cx="26" cy="43" r="2" fill="white"/>
  <circle cx="54" cy="43" r="4.5" fill="#1a5276" stroke="#aed6f1" stroke-width="1.5"/>
  <circle cx="54" cy="43" r="2" fill="white"/>
  <circle cx="57" cy="32" r="2.5" fill="#f39c12"/>
  <circle cx="23" cy="32" r="2.5" fill="#f39c12"/>
  <!-- Texto -->
  <text x="76" y="36" font-family="'Segoe UI', Arial, sans-serif" font-size="18" font-weight="700" fill="#2c3e50" letter-spacing="-0.5">Soavel</text>
  <text x="76" y="50" font-family="'Segoe UI', Arial, sans-serif" font-size="10" font-weight="400" fill="#7f8c8d" letter-spacing="1">VEÍCULOS</text>
</svg>
