<svg xmlns="http://www.w3.org/2000/svg" viewBox="0 0 64 64">
  <rect width="64" height="64" rx="10" fill="#3c8dbc"/>
  <path d="M12 38 L16 26 Q17 23 20 23 L44 23 Q47 23 48 26 L52 38 Q54 39 54 41 L54 46 Q54 47 53 47 L49 47 Q48 47 48 46 L48 44 L16 44 L16 46 Q16 47 15 47 L11 47 Q10 47 10 46 L10 41 Q10 39 12 38 Z" fill="white"/>
  <rect x="14" y="36" width="36" height="2" rx="1" fill="#3c8dbc"/>
  <circle cx="20" cy="44" r="5" fill="#1a5276" stroke="white" stroke-width="1.5"/>
  <circle cx="20" cy="44" r="2" fill="white"/>
  <circle cx="44" cy="44" r="5" fill="#1a5276" stroke="white" stroke-width="1.5"/>
  <circle cx="44" cy="44" r="2" fill="white"/>
  <path d="M20 27 L24 34 L40 34 L44 27 Z" fill="#3c8dbc"/>
  <rect x="28" y="27" width="1.5" height="7" fill="white" opacity="0.4"/>
  <rect x="34" y="27" width="1.5" height="7" fill="white" opacity="0.4"/>
  <circle cx="48" cy="31" r="3" fill="#f39c12"/>
  <circle cx="16" cy="31" r="3" fill="#f39c12"/>
</svg>
