<?xml version="1.0" standalone="no"?>
<!DOCTYPE svg PUBLIC "-//W3C//DTD SVG 20010904//EN"
 "http://www.w3.org/TR/2001/REC-SVG-20010904/DTD/svg10.dtd">
<svg version="1.0" xmlns="http://www.w3.org/2000/svg"
 width="878.000000pt" height="284.000000pt" viewBox="0 0 878.000000 284.000000"
 preserveAspectRatio="xMidYMid meet">

<g transform="translate(0.000000,284.000000) scale(0.100000,-0.100000)"
fill="#000000" stroke="none">
<path d="M3765 2604 c-151 -7 -506 -42 -605 -59 -19 -3 -64 -11 -100 -16 -36
-6 -112 -20 -170 -31 -58 -10 -127 -23 -155 -28 -27 -5 -81 -16 -120 -25 -38
-9 -88 -20 -110 -25 -22 -4 -105 -24 -185 -44 -80 -20 -165 -41 -190 -47 -25
-5 -61 -14 -80 -19 -175 -43 -411 -85 -535 -96 -33 -3 -93 -10 -133 -15 -40
-5 -95 -9 -122 -9 -27 0 -70 -4 -97 -9 -26 -6 -79 -15 -118 -21 -72 -13 -235
-54 -270 -69 -11 -5 -35 -15 -54 -22 -65 -24 -196 -112 -243 -161 -81 -86
-117 -187 -103 -294 6 -51 25 -77 25 -34 0 35 61 143 100 180 59 55 77 68 148
114 114 72 241 111 522 157 94 15 732 15 858 0 48 -6 170 -18 272 -26 102 -9
268 -25 370 -36 102 -12 226 -25 275 -30 50 -5 128 -14 175 -20 119 -13 221
-24 475 -48 206 -19 305 -27 600 -51 173 -14 547 -25 785 -24 185 1 511 11
1075 34 641 25 919 23 1165 -11 166 -22 333 -65 420 -106 61 -29 130 -94 130
-123 0 -10 5 -22 10 -25 34 -21 -15 113 -54 150 -123 115 -350 186 -716 226
-95 10 -650 30 -660 24 -3 -2 -117 -5 -252 -6 -169 -1 -250 1 -259 9 -59 48
-94 75 -164 127 -44 33 -81 63 -83 68 -2 4 -10 7 -18 7 -8 0 -14 4 -14 9 0 5
-8 11 -17 15 -10 3 -49 24 -88 46 -38 22 -87 48 -107 58 -21 9 -38 20 -38 24
0 5 -5 8 -11 8 -6 0 -44 16 -85 35 -40 19 -78 35 -84 35 -6 0 -29 9 -53 19
-104 46 -336 108 -537 141 -184 31 -573 53 -775 44z m725 -143 c122 -21 285
-51 325 -60 113 -25 307 -90 419 -140 27 -11 55 -21 62 -21 8 0 14 -4 14 -10
0 -5 4 -10 9 -10 23 0 253 -118 311 -160 16 -11 33 -20 39 -20 6 0 11 -4 11
-10 0 -5 4 -10 10 -10 17 0 100 -55 100 -66 0 -8 -36 -14 -102 -17 -57 -3
-177 -10 -268 -16 -688 -42 -1079 -42 -1510 -1 -58 6 -130 12 -160 15 -30 3
-77 10 -105 15 -27 5 -72 12 -100 15 -104 13 -243 34 -320 49 -79 16 -114 23
-210 46 -27 6 -63 14 -80 16 -16 3 -39 9 -50 14 -11 4 -66 22 -123 40 -57 18
-113 41 -125 51 l-22 19 23 18 c13 10 49 27 80 37 32 11 64 22 72 26 46 21 73
30 155 54 132 37 210 58 268 70 132 27 397 63 517 69 145 7 696 -2 760 -13z"/>
<path d="M8145 1920 c-3 -25 -10 -92 -16 -150 -5 -58 -14 -150 -19 -205 -6
-55 -14 -147 -19 -205 -6 -58 -22 -226 -36 -375 -33 -336 -40 -414 -59 -645
-8 -102 -18 -193 -22 -203 -6 -16 5 -17 124 -17 72 0 133 4 136 9 3 4 10 64
16 132 6 68 15 162 20 209 4 47 13 137 19 200 15 157 65 664 90 905 23 224 34
375 29 381 -4 3 -63 6 -132 7 l-125 2 -6 -45z"/>
<path d="M990 1838 c-96 -21 -218 -62 -278 -95 -82 -43 -134 -92 -187 -174
-66 -101 -78 -146 -73 -291 4 -124 9 -145 51 -192 9 -11 17 -23 17 -27 0 -13
121 -93 175 -117 28 -12 86 -32 130 -43 44 -11 96 -25 115 -31 19 -5 54 -13
76 -18 23 -5 70 -18 104 -30 164 -55 211 -105 211 -219 0 -113 -92 -227 -216
-264 -33 -10 -74 -23 -91 -28 -17 -5 -75 -9 -130 -9 -153 0 -316 35 -433 93
-36 18 -69 33 -72 35 -3 1 -11 -23 -18 -55 -7 -32 -17 -67 -21 -78 -5 -11 -11
-37 -15 -58 -5 -34 -4 -38 22 -47 15 -6 37 -14 48 -19 50 -22 133 -44 235 -62
96 -16 355 -17 440 0 274 53 443 188 505 406 26 89 23 226 -5 290 -26 56 -118
151 -171 176 -84 40 -81 39 -279 90 -268 69 -355 110 -400 191 -40 71 -15 183
56 250 37 35 110 78 164 97 105 36 367 34 505 -5 33 -9 72 -19 88 -21 15 -3
30 -9 33 -14 3 -5 13 -9 22 -9 13 0 21 14 30 48 7 26 17 61 22 77 5 17 12 46
15 66 7 36 6 36 -37 47 -24 6 -54 14 -68 17 -103 28 -480 43 -570 23z"/>
<path d="M2455 1445 c-70 -13 -177 -45 -225 -67 -83 -39 -260 -192 -260 -225
0 -7 -4 -13 -8 -13 -12 0 -67 -123 -90 -200 -63 -210 -55 -370 28 -537 61
-123 159 -206 323 -272 47 -19 195 -41 276 -41 144 0 291 36 401 99 60 34 72
44 154 126 111 111 174 251 201 450 29 213 -40 420 -182 543 -140 122 -393
178 -618 137z m231 -196 c131 -24 220 -95 269 -217 22 -54 25 -78 25 -179 0
-73 -6 -141 -16 -182 -36 -150 -128 -281 -231 -330 -26 -13 -57 -28 -68 -34
-11 -6 -68 -13 -127 -15 -84 -4 -118 -1 -165 14 -151 46 -232 145 -259 318
-13 81 -6 163 27 301 32 135 173 278 309 313 84 22 158 25 236 11z"/>
<path d="M4013 1445 c-107 -15 -172 -29 -265 -57 -62 -19 -68 -23 -68 -47 1
-38 18 -162 23 -167 3 -3 45 8 93 24 123 41 239 56 376 50 153 -7 216 -34 267
-118 17 -29 21 -51 21 -125 0 -49 -4 -96 -9 -104 -6 -10 -23 -11 -67 -7 -33 4
-149 9 -259 12 -196 6 -236 3 -350 -28 -48 -13 -165 -75 -165 -88 0 -5 -8 -11
-18 -14 -17 -6 -77 -93 -95 -140 -21 -52 -37 -132 -37 -186 0 -63 19 -150 32
-150 4 0 8 -6 8 -14 0 -8 21 -37 46 -65 77 -86 200 -130 361 -131 52 0 181 23
218 39 82 35 161 81 204 118 27 23 51 43 54 43 3 0 2 -38 -1 -85 l-5 -85 126
0 125 0 6 37 c3 21 11 90 17 153 10 110 17 171 38 360 36 323 41 400 31 467
-16 100 -67 178 -155 236 -54 36 -119 55 -249 72 -126 17 -175 17 -303 0z
m409 -728 c8 -12 1 -101 -13 -178 -9 -44 -21 -66 -59 -110 -43 -49 -75 -70
-189 -123 -14 -6 -81 -11 -160 -11 -135 0 -136 0 -181 30 -79 54 -108 139 -77
225 33 91 68 125 172 166 44 17 139 22 315 17 114 -3 188 -9 192 -16z"/>
<path d="M7005 1448 c-85 -16 -168 -39 -205 -57 -41 -20 -83 -44 -90 -51 -3
-3 -23 -18 -45 -34 -120 -88 -221 -257 -255 -429 -49 -245 -5 -456 123 -590
52 -55 154 -127 180 -127 7 0 17 -4 23 -8 30 -27 210 -62 319 -62 113 0 299
32 357 61 10 5 25 9 33 9 9 0 34 9 57 21 l40 21 -6 46 c-4 26 -9 68 -13 94 -3
27 -8 48 -12 48 -3 0 -35 -12 -71 -26 -36 -15 -74 -30 -85 -34 -59 -23 -153
-35 -275 -35 -134 0 -149 3 -239 42 -54 24 -120 92 -148 152 -31 65 -44 161
-22 161 8 1 244 0 526 0 281 0 514 3 516 7 3 4 10 56 16 114 16 149 -1 260
-57 379 -30 62 -28 59 -79 119 -122 140 -378 218 -588 179z m256 -214 c39 -12
66 -29 104 -67 71 -72 97 -132 103 -234 l5 -83 -402 0 -402 0 7 38 c18 99 79
209 152 274 100 89 277 118 433 72z"/>
<path d="M4920 1416 c0 -2 18 -55 41 -118 22 -62 63 -176 89 -253 27 -77 65
-185 85 -240 20 -55 43 -120 51 -145 8 -25 19 -54 24 -65 5 -11 25 -67 45
-125 20 -58 40 -114 45 -125 4 -11 16 -45 26 -75 18 -58 25 -78 43 -123 l11
-27 124 0 125 0 36 61 c19 33 35 63 35 65 0 3 8 18 19 32 10 15 43 74 72 132
30 58 56 107 59 110 6 6 7 9 80 145 29 55 57 105 61 111 5 6 29 51 55 100 26
49 50 94 54 99 5 6 36 64 70 130 35 66 70 131 79 145 9 14 25 43 36 65 10 22
27 52 37 67 10 14 18 29 18 32 0 3 -65 6 -145 6 -101 0 -145 -3 -145 -11 0
-12 -71 -156 -144 -292 -82 -152 -116 -221 -116 -233 0 -7 -3 -14 -7 -16 -9
-3 -70 -120 -167 -313 -33 -68 -66 -124 -73 -124 -6 -1 -21 29 -32 67 -12 37
-26 76 -30 87 -5 11 -30 85 -55 165 -26 80 -50 152 -55 160 -4 8 -18 51 -32
95 -13 44 -49 154 -79 245 l-55 165 -142 3 c-79 1 -143 1 -143 -2z"/>
</g>
</svg>
